<svg width="24" height="24" viewBox="0 0 24 24" fill="none" xmlns="http://www.w3.org/2000/svg">
<path fill-rule="evenodd" clip-rule="evenodd" d="M15.7785 0.960007C19.2604 0.960007 21.6 3.40417 21.6 7.04161V15.5184C21.6 19.1558 19.2604 21.6 15.7785 21.6H6.7814C3.29948 21.6 0.959961 19.1558 0.959961 15.5184V7.04161C0.959961 3.40417 3.29948 0.960007 6.7814 0.960007H15.7785ZM15.7785 2.40001H6.7814C4.12028 2.40001 2.39996 4.22113 2.39996 7.04161V15.5184C2.39996 18.3389 4.12028 20.16 6.7814 20.16H15.7785C18.4406 20.16 20.16 18.3389 20.16 15.5184V7.04161C20.16 4.22113 18.4406 2.40001 15.7785 2.40001ZM11.28 7.03421C11.6774 7.03421 12 7.35677 12 7.75422V10.5504L14.7998 10.5506C15.1972 10.5506 15.5198 10.8732 15.5198 11.2706C15.5198 11.668 15.1972 11.9906 14.7998 11.9906L12 11.9904V14.7881C12 15.1856 11.6774 15.5081 11.28 15.5081C10.8825 15.5081 10.56 15.1856 10.56 14.7881V11.9904L7.76012 11.9906C7.36172 11.9906 7.04012 11.668 7.04012 11.2706C7.04012 10.8732 7.36172 10.5506 7.76012 10.5506L10.56 10.5504V7.75422C10.56 7.35677 10.8825 7.03421 11.28 7.03421Z" fill="#0866FF"/>
</svg>
