<svg width="25" height="25" viewBox="0 0 25 25" fill="none" xmlns="http://www.w3.org/2000/svg">
<path d="M17.2915 21.3156C17.0374 21.3154 16.7871 21.2532 16.5624 21.1344L12.7436 19.1271C12.6691 19.088 12.5861 19.0676 12.502 19.0676C12.4178 19.0676 12.3349 19.088 12.2603 19.1271L8.43738 21.1344C8.17932 21.2702 7.88841 21.3311 7.59754 21.3101C7.30668 21.2892 7.02748 21.1873 6.79152 21.016C6.55556 20.8446 6.37227 20.6106 6.26237 20.3405C6.15248 20.0704 6.12037 19.7749 6.16967 19.4875L6.89884 15.2354C6.91312 15.1523 6.90702 15.0671 6.88108 14.9869C6.85513 14.9067 6.81011 14.834 6.74988 14.775L3.66238 11.7635C3.45345 11.56 3.30566 11.3021 3.23574 11.0189C3.16582 10.7357 3.17656 10.4386 3.26675 10.1612C3.35694 9.88382 3.52297 9.63722 3.74605 9.4493C3.96914 9.26138 4.24037 9.13967 4.52905 9.09792L8.79988 8.47292C8.8833 8.46075 8.96253 8.42852 9.03075 8.37899C9.09897 8.32946 9.15415 8.2641 9.19155 8.18854L11.1009 4.31979C11.23 4.0584 11.4296 3.83833 11.6772 3.68445C11.9248 3.53057 12.2105 3.44902 12.502 3.44902C12.7935 3.44902 13.0792 3.53057 13.3268 3.68445C13.5743 3.83833 13.7739 4.0584 13.903 4.31979L15.8124 8.18854C15.8496 8.2643 15.9048 8.32986 15.973 8.37958C16.0412 8.4293 16.1205 8.46169 16.204 8.47396L20.4749 9.09896C20.7636 9.14071 21.0348 9.26243 21.2579 9.45034C21.481 9.63826 21.647 9.88486 21.7372 10.1623C21.8274 10.4396 21.8381 10.7367 21.7682 11.0199C21.6983 11.3031 21.5505 11.561 21.3415 11.7646L18.253 14.776C18.1926 14.8349 18.1474 14.9076 18.1212 14.9878C18.0951 15.068 18.0889 15.1533 18.103 15.2365L18.8322 19.4885C18.8707 19.7129 18.8598 19.943 18.8001 20.1627C18.7404 20.3823 18.6335 20.5863 18.4868 20.7604C18.34 20.9344 18.157 21.0743 17.9506 21.1702C17.7441 21.2661 17.5192 21.3157 17.2915 21.3156ZM13.229 18.2052L17.0457 20.2083C17.1317 20.2534 17.2286 20.2736 17.3254 20.2665C17.4223 20.2594 17.5152 20.2254 17.5938 20.1683C17.6723 20.1112 17.7333 20.0333 17.7699 19.9434C17.8065 19.8535 17.8173 19.7551 17.8009 19.6594L17.0718 15.4073C17.029 15.1575 17.0476 14.9011 17.126 14.6601C17.2043 14.4191 17.3402 14.2008 17.5218 14.024L20.6103 11.0135C20.6799 10.9457 20.7292 10.8598 20.7525 10.7654C20.7758 10.671 20.7723 10.572 20.7423 10.4796C20.7122 10.3871 20.657 10.3049 20.5826 10.2422C20.5083 10.1796 20.418 10.139 20.3218 10.125L16.0509 9.5C15.8001 9.46362 15.5618 9.36675 15.3568 9.21776C15.1517 9.06877 14.986 8.87213 14.8738 8.64479L12.9676 4.78542C12.9209 4.70216 12.8528 4.63285 12.7704 4.58461C12.6881 4.53636 12.5943 4.51094 12.4988 4.51094C12.4034 4.51094 12.3096 4.53636 12.2272 4.58461C12.1449 4.63285 12.0768 4.70216 12.0301 4.78542L10.1238 8.65417C10.0116 8.88131 9.84579 9.07774 9.64073 9.22655C9.43567 9.37535 9.1975 9.47206 8.94675 9.50833L4.67592 10.1333C4.57972 10.1473 4.48935 10.1879 4.41504 10.2506C4.34072 10.3132 4.28542 10.3954 4.2554 10.4879C4.22538 10.5804 4.22183 10.6794 4.24515 10.7737C4.26847 10.8681 4.31774 10.9541 4.38738 11.0219L7.47904 14.0292C7.66107 14.2065 7.79709 14.4255 7.87533 14.6673C7.95356 14.9091 7.97164 15.1663 7.928 15.4167L7.19884 19.6687C7.18236 19.7646 7.19304 19.8632 7.22969 19.9532C7.26633 20.0433 7.32747 20.1214 7.40618 20.1785C7.48489 20.2356 7.57802 20.2696 7.67503 20.2765C7.77204 20.2834 7.86906 20.2631 7.95509 20.2177L11.7707 18.2052C11.9955 18.0866 12.2458 18.0246 12.4999 18.0246C12.754 18.0246 13.0043 18.0866 13.229 18.2052Z" fill="#0866FF"/>
</svg>
